<?xml version="1.0" encoding="UTF-8"?>
<svg xmlns="http://www.w3.org/2000/svg" id="Layer_1" data-name="Layer 1" viewBox="0 0 24 24">
  <path d="M22.207,6.07c-.289-1.155-1.212-2.036-2.354-2.245-.166-.03-.337-.051-.505-.08v-1.022c0-.829-.671-1.5-1.5-1.5s-1.5,.671-1.5,1.5v.622c-2.872-.277-5.825-.277-8.697,0v-.622c0-.829-.671-1.5-1.5-1.5s-1.5,.671-1.5,1.5v1.021c-.167,.028-.339,.049-.505,.08-1.141,.208-2.065,1.089-2.354,2.244-.125,.502-.236,1.018-.331,1.545H22.539c-.096-.527-.206-1.043-.331-1.544Z"/>
  <path d="M22.826,9.615H1.174c-.368,3.418-.163,7.099,.619,10.223,.289,1.155,1.213,2.036,2.354,2.244,2.532,.462,5.193,.694,7.854,.694s5.321-.231,7.854-.694c1.141-.208,2.065-1.089,2.354-2.244,.781-3.124,.987-6.804,.619-10.223ZM7.691,17.959c-.552,0-1-.448-1-1s.448-1,1-1,1,.448,1,1-.448,1-1,1Zm0-3.734c-.552,0-1-.448-1-1s.448-1,1-1,1,.448,1,1-.448,1-1,1Zm4.314,3.726c-.552,0-1-.448-1-1s.448-1,1-1,1,.448,1,1-.448,1-1,1Zm0-3.734c-.552,0-1-.448-1-1s.448-1,1-1,1,.448,1,1-.448,1-1,1Zm4.306,3.734c-.552,0-1-.448-1-1s.448-1,1-1,1,.448,1,1-.448,1-1,1Zm0-3.734c-.552,0-1-.448-1-1s.448-1,1-1,1,.448,1,1-.448,1-1,1Z"/>
</svg>
